<mxfile host="app.diagrams.net" modified="2024-03-15T14:06:00.593Z" agent="Mozilla/5.0 (X11; Linux x86_64) AppleWebKit/537.36 (KHTML, like Gecko) Chrome/122.0.0.0 Safari/537.36" version="24.0.7" etag="O7AEQ2WxJ59y4ZAqRoIL" type="github">
  <diagram name="PÃ¡gina-1" id="UPAp28U8A0UcULx40U2b">
    <mxGraphModel>
      <root>
        <mxCell id="0" />
        <mxCell id="1" parent="0" />
      </root>
    </mxGraphModel>
  </diagram>
</mxfile>
